# xmcd CD database file
#
# Track frame offsets:
#	150
#	24577
#	52311
#	74261
#	99409
#	120677
#	144657
#	168707
#	190869
#	206440
#	240749
#	258350
#	320409
#
# Disc length: 4635 seconds
#
# Revision: 0
# Processed by: cddbd v1.5.2PL0 Copyright (c) Steve Scherf et al.
# Submitted via: CDex 1.70beta2
#
DISCID=c112190d
DTITLE=ERIC CLAPTON AND GUEST - Crossroads Revisited Selections From The Crossroads Guitar Festivals
DYEAR=2016
DGENRE=Blues
TTITLE0=Sweet Home Chicago(Eric Clapton, Robert Cray, Buddy Guy, Hubert Sumlin and Jimmie Vaughan)
TTITLE1=Rock Me Baby(Eric Clapton, Buddy Guy, B.B. King and Jimmie Vaughan)
TTITLE2=Steamroller(James Taylor With Joe Walsh)
TTITLE3=What The Cowgirls Do(Vince Gill With Jerry Douglas)
TTITLE4=After Midnight(J.J. Cale With Eric Clapton)
TTITLE5=Green Light Girl(Doyle Bramhall II)
TTITLE6=Hell At Home(Sonny Landreth With Eric Clapton)
TTITLE7=City Love(John Mayer)
TTITLE8=Funk #49(Joe Walsh)
TTITLE9=Drums Of Passion(Carlos Santana With Eric Clapton)
TTITLE10=Cause We've Ended As Lovers(Jeff Beck)
TTITLE11=Have You Ever Loved A Woman(Eric Clapton)
TTITLE12=Layla(Eric Clapton)
EXTD=YEAR: 2016
EXTT0=
EXTT1=
EXTT2=
EXTT3=
EXTT4=
EXTT5=
EXTT6=
EXTT7=
EXTT8=
EXTT9=
EXTT10=
EXTT11=
EXTT12=
PLAYORDER=
